<svg id="visual" viewBox="0 0 900 600" width="900" height="600" xmlns="http://www.w3.org/2000/svg" xmlns:xlink="http://www.w3.org/1999/xlink" version="1.1"><path d="M0 525L15 509.3C30 493.7 60 462.3 90 450.2C120 438 150 445 180 453.7C210 462.3 240 472.7 270 479.3C300 486 330 489 360 485.3C390 481.7 420 471.3 450 472.5C480 473.7 510 486.3 540 482.5C570 478.7 600 458.3 630 450.5C660 442.7 690 447.3 720 449.5C750 451.7 780 451.3 810 459.2C840 467 870 483 885 491L900 499L900 601L885 601C870 601 840 601 810 601C780 601 750 601 720 601C690 601 660 601 630 601C600 601 570 601 540 601C510 601 480 601 450 601C420 601 390 601 360 601C330 601 300 601 270 601C240 601 210 601 180 601C150 601 120 601 90 601C60 601 30 601 15 601L0 601Z" fill="#f0f7ff" stroke-linecap="round" stroke-linejoin="miter"></path></svg>