<svg id="visual" viewBox="0 0 900 600" width="900" height="600" xmlns="http://www.w3.org/2000/svg" xmlns:xlink="http://www.w3.org/1999/xlink" version="1.1"><path d="M0 95L21.5 103.2C43 111.3 86 127.7 128.8 133.7C171.7 139.7 214.3 135.3 257.2 126.5C300 117.7 343 104.3 385.8 103.5C428.7 102.7 471.3 114.3 514.2 115.7C557 117 600 108 642.8 111.5C685.7 115 728.3 131 771.2 134.3C814 137.7 857 128.3 878.5 123.7L900 119L900 0L878.5 0C857 0 814 0 771.2 0C728.3 0 685.7 0 642.8 0C600 0 557 0 514.2 0C471.3 0 428.7 0 385.8 0C343 0 300 0 257.2 0C214.3 0 171.7 0 128.8 0C86 0 43 0 21.5 0L0 0Z" fill="#1e90ff"></path><path d="M0 118L21.5 116C43 114 86 110 128.8 105.8C171.7 101.7 214.3 97.3 257.2 95.7C300 94 343 95 385.8 90.7C428.7 86.3 471.3 76.7 514.2 80.7C557 84.7 600 102.3 642.8 103.3C685.7 104.3 728.3 88.7 771.2 87.5C814 86.3 857 99.7 878.5 106.3L900 113L900 0L878.5 0C857 0 814 0 771.2 0C728.3 0 685.7 0 642.8 0C600 0 557 0 514.2 0C471.3 0 428.7 0 385.8 0C343 0 300 0 257.2 0C214.3 0 171.7 0 128.8 0C86 0 43 0 21.5 0L0 0Z" fill="#79aaff"></path><path d="M0 73L21.5 77C43 81 86 89 128.8 84.8C171.7 80.7 214.3 64.3 257.2 62C300 59.7 343 71.3 385.8 72.5C428.7 73.7 471.3 64.3 514.2 64.2C557 64 600 73 642.8 71.8C685.7 70.7 728.3 59.3 771.2 56.2C814 53 857 58 878.5 60.5L900 63L900 0L878.5 0C857 0 814 0 771.2 0C728.3 0 685.7 0 642.8 0C600 0 557 0 514.2 0C471.3 0 428.7 0 385.8 0C343 0 300 0 257.2 0C214.3 0 171.7 0 128.8 0C86 0 43 0 21.5 0L0 0Z" fill="#acc5ff"></path><path d="M0 34L21.5 33.8C43 33.7 86 33.3 128.8 34.7C171.7 36 214.3 39 257.2 45.7C300 52.3 343 62.7 385.8 66.2C428.7 69.7 471.3 66.3 514.2 65C557 63.7 600 64.3 642.8 65C685.7 65.7 728.3 66.3 771.2 65.8C814 65.3 857 63.7 878.5 62.8L900 62L900 0L878.5 0C857 0 814 0 771.2 0C728.3 0 685.7 0 642.8 0C600 0 557 0 514.2 0C471.3 0 428.7 0 385.8 0C343 0 300 0 257.2 0C214.3 0 171.7 0 128.8 0C86 0 43 0 21.5 0L0 0Z" fill="#d7e2ff"></path><path d="M0 43L21.5 38.7C43 34.3 86 25.7 128.8 24.8C171.7 24 214.3 31 257.2 32.3C300 33.7 343 29.3 385.8 30.2C428.7 31 471.3 37 514.2 38.7C557 40.3 600 37.7 642.8 36.2C685.7 34.7 728.3 34.3 771.2 30.5C814 26.7 857 19.3 878.5 15.7L900 12L900 0L878.5 0C857 0 814 0 771.2 0C728.3 0 685.7 0 642.8 0C600 0 557 0 514.2 0C471.3 0 428.7 0 385.8 0C343 0 300 0 257.2 0C214.3 0 171.7 0 128.8 0C86 0 43 0 21.5 0L0 0Z" fill="#ffffff"></path></svg>