<svg id="visual" viewBox="0 0 900 600" width="900" height="600" xmlns="http://www.w3.org/2000/svg" xmlns:xlink="http://www.w3.org/1999/xlink" version="1.1"><path d="M0 73L15 88.7C30 104.3 60 135.7 90 147.8C120 160 150 153 180 144.3C210 135.7 240 125.3 270 118.7C300 112 330 109 360 112.7C390 116.3 420 126.7 450 125.5C480 124.3 510 111.7 540 115.5C570 119.3 600 139.7 630 147.5C660 155.3 690 150.7 720 148.5C750 146.3 780 146.7 810 138.8C840 131 870 115 885 107L900 99L900 0L885 0C870 0 840 0 810 0C780 0 750 0 720 0C690 0 660 0 630 0C600 0 570 0 540 0C510 0 480 0 450 0C420 0 390 0 360 0C330 0 300 0 270 0C240 0 210 0 180 0C150 0 120 0 90 0C60 0 30 0 15 0L0 0Z" fill="#f0f7ff" stroke-linecap="round" stroke-linejoin="miter"></path></svg>