<svg id="visual" viewBox="0 0 900 600" width="900" height="600" xmlns="http://www.w3.org/2000/svg" xmlns:xlink="http://www.w3.org/1999/xlink" version="1.1"><rect x="0" y="0" width="900" height="600" fill="#f0f7ff"></rect><defs><linearGradient id="grad1_0" x1="33.3%" y1="0%" x2="100%" y2="100%"><stop offset="20%" stop-color="#f0f7ff" stop-opacity="1"></stop><stop offset="80%" stop-color="#f0f7ff" stop-opacity="1"></stop></linearGradient></defs><defs><linearGradient id="grad2_0" x1="0%" y1="0%" x2="66.7%" y2="100%"><stop offset="20%" stop-color="#f0f7ff" stop-opacity="1"></stop><stop offset="80%" stop-color="#f0f7ff" stop-opacity="1"></stop></linearGradient></defs><g transform="translate(900, 0)"><path d="M0 486.7C-57.7 462.4 -115.5 438.1 -171.8 414.8C-228.2 391.5 -283.2 369.2 -332.3 332.3C-381.5 295.5 -424.9 244.1 -449.7 186.3C-474.5 128.5 -480.6 64.2 -486.7 0L0 0Z" fill="#1e90ff"></path></g><g transform="translate(0, 600)"><path d="M0 -486.7C47.8 -446.7 95.5 -406.6 161.9 -390.8C228.2 -375 313.2 -383.6 344.2 -344.2C375.1 -304.7 352 -217.3 366.8 -151.9C381.5 -86.6 434.1 -43.3 486.7 0L0 0Z" fill="#1e90ff"></path></g></svg>