<svg id="visual" viewBox="0 0 900 600" width="900" height="600" xmlns="http://www.w3.org/2000/svg" xmlns:xlink="http://www.w3.org/1999/xlink" version="1.1"><rect x="0" y="0" width="900" height="600" fill="#fff"></rect><defs><linearGradient id="grad1_0" x1="33.3%" y1="0%" x2="100%" y2="100%"><stop offset="20%" stop-color="#ffffff" stop-opacity="1"></stop><stop offset="80%" stop-color="#ffffff" stop-opacity="1"></stop></linearGradient></defs><defs><linearGradient id="grad2_0" x1="0%" y1="0%" x2="66.7%" y2="100%"><stop offset="20%" stop-color="#ffffff" stop-opacity="1"></stop><stop offset="80%" stop-color="#ffffff" stop-opacity="1"></stop></linearGradient></defs><g transform="translate(900, 0)"><path d="M0 324.5C-43 320.2 -86 315.9 -124.2 299.8C-162.4 283.7 -195.7 255.8 -224.9 224.9C-254 194 -278.8 160.1 -294.7 122.1C-310.6 84.1 -317.6 42.1 -324.5 0L0 0Z" fill="#1e90ff"></path></g><g transform="translate(0, 600)"><path d="M0 -324.5C40.9 -319 81.7 -313.6 124.2 -299.8C166.6 -286 210.6 -264 228.4 -228.4C246.2 -192.8 237.8 -143.6 249.4 -103.3C261.1 -63 292.8 -31.5 324.5 0L0 0Z" fill="#1e90ff"></path></g></svg>