<svg id="visual" viewBox="0 0 900 600" width="900" height="600" xmlns="http://www.w3.org/2000/svg" xmlns:xlink="http://www.w3.org/1999/xlink" version="1.1"><path d="M0 155L21.5 148.8C43 142.7 86 130.3 128.8 130C171.7 129.7 214.3 141.3 257.2 145.2C300 149 343 145 385.8 134C428.7 123 471.3 105 514.2 102.5C557 100 600 113 642.8 122.5C685.7 132 728.3 138 771.2 130.8C814 123.7 857 103.3 878.5 93.2L900 83L900 0L878.5 0C857 0 814 0 771.2 0C728.3 0 685.7 0 642.8 0C600 0 557 0 514.2 0C471.3 0 428.7 0 385.8 0C343 0 300 0 257.2 0C214.3 0 171.7 0 128.8 0C86 0 43 0 21.5 0L0 0Z" fill="#1e90ff"></path><path d="M0 84L21.5 84C43 84 86 84 128.8 90.3C171.7 96.7 214.3 109.3 257.2 111.7C300 114 343 106 385.8 99.2C428.7 92.3 471.3 86.7 514.2 83.7C557 80.7 600 80.3 642.8 85.7C685.7 91 728.3 102 771.2 103.7C814 105.3 857 97.7 878.5 93.8L900 90L900 0L878.5 0C857 0 814 0 771.2 0C728.3 0 685.7 0 642.8 0C600 0 557 0 514.2 0C471.3 0 428.7 0 385.8 0C343 0 300 0 257.2 0C214.3 0 171.7 0 128.8 0C86 0 43 0 21.5 0L0 0Z" fill="#66aaff"></path><path d="M0 84L21.5 81.2C43 78.3 86 72.7 128.8 72.7C171.7 72.7 214.3 78.3 257.2 76.5C300 74.7 343 65.3 385.8 65C428.7 64.7 471.3 73.3 514.2 80C557 86.7 600 91.3 642.8 93.7C685.7 96 728.3 96 771.2 96.5C814 97 857 98 878.5 98.5L900 99L900 0L878.5 0C857 0 814 0 771.2 0C728.3 0 685.7 0 642.8 0C600 0 557 0 514.2 0C471.3 0 428.7 0 385.8 0C343 0 300 0 257.2 0C214.3 0 171.7 0 128.8 0C86 0 43 0 21.5 0L0 0Z" fill="#96c4ff"></path><path d="M0 58L21.5 54.7C43 51.3 86 44.7 128.8 40.3C171.7 36 214.3 34 257.2 33.8C300 33.7 343 35.3 385.8 41.3C428.7 47.3 471.3 57.7 514.2 63.7C557 69.7 600 71.3 642.8 65.3C685.7 59.3 728.3 45.7 771.2 41.3C814 37 857 42 878.5 44.5L900 47L900 0L878.5 0C857 0 814 0 771.2 0C728.3 0 685.7 0 642.8 0C600 0 557 0 514.2 0C471.3 0 428.7 0 385.8 0C343 0 300 0 257.2 0C214.3 0 171.7 0 128.8 0C86 0 43 0 21.5 0L0 0Z" fill="#c3deff"></path><path d="M0 25L21.5 22.8C43 20.7 86 16.3 128.8 14.2C171.7 12 214.3 12 257.2 17C300 22 343 32 385.8 32.8C428.7 33.7 471.3 25.3 514.2 25.2C557 25 600 33 642.8 37.8C685.7 42.7 728.3 44.3 771.2 42.3C814 40.3 857 34.7 878.5 31.8L900 29L900 0L878.5 0C857 0 814 0 771.2 0C728.3 0 685.7 0 642.8 0C600 0 557 0 514.2 0C471.3 0 428.7 0 385.8 0C343 0 300 0 257.2 0C214.3 0 171.7 0 128.8 0C86 0 43 0 21.5 0L0 0Z" fill="#f0f7ff"></path></svg>