<svg id="visual" viewBox="0 0 900 600" width="900" height="600" xmlns="http://www.w3.org/2000/svg" xmlns:xlink="http://www.w3.org/1999/xlink" version="1.1"><path d="M0 167L21.5 175.3C43 183.7 86 200.3 128.8 187.8C171.7 175.3 214.3 133.7 257.2 129.5C300 125.3 343 158.7 385.8 167.8C428.7 177 471.3 162 514.2 164.8C557 167.7 600 188.3 642.8 187.8C685.7 187.3 728.3 165.7 771.2 152C814 138.3 857 132.7 878.5 129.8L900 127L900 0L878.5 0C857 0 814 0 771.2 0C728.3 0 685.7 0 642.8 0C600 0 557 0 514.2 0C471.3 0 428.7 0 385.8 0C343 0 300 0 257.2 0C214.3 0 171.7 0 128.8 0C86 0 43 0 21.5 0L0 0Z" fill="#B6D9FC" stroke-linecap="round" stroke-linejoin="miter"></path></svg>