<svg id="visual" viewBox="0 0 900 600" width="900" height="600" xmlns="http://www.w3.org/2000/svg" xmlns:xlink="http://www.w3.org/1999/xlink" version="1.1"><path d="M0 443L21.5 449.2C43 455.3 86 467.7 128.8 468C171.7 468.3 214.3 456.7 257.2 452.8C300 449 343 453 385.8 464C428.7 475 471.3 493 514.2 495.5C557 498 600 485 642.8 475.5C685.7 466 728.3 460 771.2 467.2C814 474.3 857 494.7 878.5 504.8L900 515L900 601L878.5 601C857 601 814 601 771.2 601C728.3 601 685.7 601 642.8 601C600 601 557 601 514.2 601C471.3 601 428.7 601 385.8 601C343 601 300 601 257.2 601C214.3 601 171.7 601 128.8 601C86 601 43 601 21.5 601L0 601Z" fill="#1e90ff"></path><path d="M0 514L21.5 514C43 514 86 514 128.8 507.7C171.7 501.3 214.3 488.7 257.2 486.3C300 484 343 492 385.8 498.8C428.7 505.7 471.3 511.3 514.2 514.3C557 517.3 600 517.7 642.8 512.3C685.7 507 728.3 496 771.2 494.3C814 492.7 857 500.3 878.5 504.2L900 508L900 601L878.5 601C857 601 814 601 771.2 601C728.3 601 685.7 601 642.8 601C600 601 557 601 514.2 601C471.3 601 428.7 601 385.8 601C343 601 300 601 257.2 601C214.3 601 171.7 601 128.8 601C86 601 43 601 21.5 601L0 601Z" fill="#66aaff"></path><path d="M0 514L21.5 516.8C43 519.7 86 525.3 128.8 525.3C171.7 525.3 214.3 519.7 257.2 521.5C300 523.3 343 532.7 385.8 533C428.7 533.3 471.3 524.7 514.2 518C557 511.3 600 506.7 642.8 504.3C685.7 502 728.3 502 771.2 501.5C814 501 857 500 878.5 499.5L900 499L900 601L878.5 601C857 601 814 601 771.2 601C728.3 601 685.7 601 642.8 601C600 601 557 601 514.2 601C471.3 601 428.7 601 385.8 601C343 601 300 601 257.2 601C214.3 601 171.7 601 128.8 601C86 601 43 601 21.5 601L0 601Z" fill="#96c4ff"></path><path d="M0 540L21.5 543.3C43 546.7 86 553.3 128.8 557.7C171.7 562 214.3 564 257.2 564.2C300 564.3 343 562.7 385.8 556.7C428.7 550.7 471.3 540.3 514.2 534.3C557 528.3 600 526.7 642.8 532.7C685.7 538.7 728.3 552.3 771.2 556.7C814 561 857 556 878.5 553.5L900 551L900 601L878.5 601C857 601 814 601 771.2 601C728.3 601 685.7 601 642.8 601C600 601 557 601 514.2 601C471.3 601 428.7 601 385.8 601C343 601 300 601 257.2 601C214.3 601 171.7 601 128.8 601C86 601 43 601 21.5 601L0 601Z" fill="#c3deff"></path><path d="M0 573L21.5 575.2C43 577.3 86 581.7 128.8 583.8C171.7 586 214.3 586 257.2 581C300 576 343 566 385.8 565.2C428.7 564.3 471.3 572.7 514.2 572.8C557 573 600 565 642.8 560.2C685.7 555.3 728.3 553.7 771.2 555.7C814 557.7 857 563.3 878.5 566.2L900 569L900 601L878.5 601C857 601 814 601 771.2 601C728.3 601 685.7 601 642.8 601C600 601 557 601 514.2 601C471.3 601 428.7 601 385.8 601C343 601 300 601 257.2 601C214.3 601 171.7 601 128.8 601C86 601 43 601 21.5 601L0 601Z" fill="#f0f7ff"></path></svg>